<svg xmlns="http://www.w3.org/2000/svg" width="192" height="192" viewBox="0 0 192 192" version="1.1"><path d="M 37.500 52.934 C 27.980 55.249, 17.543 62.986, 12.630 71.369 C 1.950 89.593, 7.771 113.163, 25.522 123.566 C 35.016 129.130, 39.768 130, 60.657 130 C 75.497 130, 79.986 129.709, 79.939 128.750 C 79.906 128.063, 77.720 123.675, 75.083 119 C 70.288 110.500, 70.288 110.500, 55.394 110 C 40.870 109.512, 40.390 109.425, 36.077 106.500 C 28.402 101.295, 29.011 101, 47.417 101 C 60.032 101, 63.993 100.701, 63.971 99.750 C 63.955 99.063, 61.762 94.675, 59.098 90 C 54.254 81.500, 54.254 81.500, 42.627 81.218 C 36.232 81.063, 31 80.534, 31 80.041 C 31 78.217, 38.380 73.142, 42.564 72.088 C 44.941 71.490, 50.726 71, 55.420 71 C 63.177 71, 64.085 71.205, 65.391 73.250 C 66.182 74.487, 73.344 87.409, 81.306 101.964 C 89.268 116.519, 96.169 128.552, 96.642 128.705 C 97.114 128.857, 98.646 126.848, 100.046 124.241 C 101.447 121.633, 108.632 108.550, 116.014 95.167 C 129.436 70.835, 129.436 70.835, 139.968 71.167 C 148.618 71.441, 151.369 71.928, 155.363 73.894 C 166.778 79.513, 169.692 94.270, 161.186 103.376 C 156.132 108.788, 151.917 109.954, 137.325 109.978 C 124.150 110, 124.150 110, 118.825 119.217 C 115.896 124.287, 113.339 128.820, 113.143 129.290 C 112.946 129.760, 122.396 130, 134.143 129.822 C 155.500 129.500, 155.500 129.500, 163.206 125.820 C 175.919 119.750, 183.296 110.618, 185.979 97.631 C 188.797 83.989, 181.811 67.470, 169.699 59.137 C 161.136 53.245, 155.100 51.997, 135.282 52.022 C 117.500 52.044, 117.500 52.044, 107.500 69.990 C 102 79.861, 97.207 87.951, 96.848 87.968 C 96.490 87.986, 91.621 79.900, 86.027 70 C 75.858 52, 75.858 52, 58.179 52.102 C 48.456 52.159, 39.150 52.533, 37.500 52.934 M 134.075 89.869 C 131.284 94.746, 129 99.286, 129 99.957 C 129 100.864, 131.845 101.090, 140.084 100.838 C 151.168 100.500, 151.168 100.500, 154.084 97.234 C 157.215 93.728, 157.708 90.647, 155.805 86.472 C 154.185 82.916, 150.095 81, 144.125 81 C 139.150 81, 139.150 81, 134.075 89.869" stroke="none" fill="#f7af46" fill-rule="evenodd"/><path d="M -0 96.005 C -0 192.010, 0 192.010, 96.250 191.755 C 192.500 191.500, 192.500 191.500, 192.755 95.750 C 193.010 0, 193.010 -0, 96.505 -0 C 0 0, 0 0, -0 96.005 M 0.480 96.500 C 0.480 149.300, 0.602 170.753, 0.750 144.174 C 0.898 117.595, 0.898 74.395, 0.750 48.174 C 0.601 21.953, 0.480 43.700, 0.480 96.500 M 37.500 52.934 C 27.980 55.249, 17.543 62.986, 12.630 71.369 C 1.950 89.593, 7.771 113.163, 25.522 123.566 C 35.016 129.130, 39.768 130, 60.657 130 C 75.497 130, 79.986 129.709, 79.939 128.750 C 79.906 128.063, 77.720 123.675, 75.083 119 C 70.288 110.500, 70.288 110.500, 55.394 110 C 40.870 109.512, 40.390 109.425, 36.077 106.500 C 28.402 101.295, 29.011 101, 47.417 101 C 60.032 101, 63.993 100.701, 63.971 99.750 C 63.955 99.063, 61.762 94.675, 59.098 90 C 54.254 81.500, 54.254 81.500, 42.627 81.218 C 36.232 81.063, 31 80.534, 31 80.041 C 31 78.217, 38.380 73.142, 42.564 72.088 C 44.941 71.490, 50.726 71, 55.420 71 C 63.177 71, 64.085 71.205, 65.391 73.250 C 66.182 74.487, 73.344 87.409, 81.306 101.964 C 89.268 116.519, 96.169 128.552, 96.642 128.705 C 97.114 128.857, 98.646 126.848, 100.046 124.241 C 101.447 121.633, 108.632 108.550, 116.014 95.167 C 129.436 70.835, 129.436 70.835, 139.968 71.167 C 148.618 71.441, 151.369 71.928, 155.363 73.894 C 166.778 79.513, 169.692 94.270, 161.186 103.376 C 156.132 108.788, 151.917 109.954, 137.325 109.978 C 124.150 110, 124.150 110, 118.825 119.217 C 115.896 124.287, 113.339 128.820, 113.143 129.290 C 112.946 129.760, 122.396 130, 134.143 129.822 C 155.500 129.500, 155.500 129.500, 163.206 125.820 C 175.919 119.750, 183.296 110.618, 185.979 97.631 C 188.797 83.989, 181.811 67.470, 169.699 59.137 C 161.136 53.245, 155.100 51.997, 135.282 52.022 C 117.500 52.044, 117.500 52.044, 107.500 69.990 C 102 79.861, 97.207 87.951, 96.848 87.968 C 96.490 87.986, 91.621 79.900, 86.027 70 C 75.858 52, 75.858 52, 58.179 52.102 C 48.456 52.159, 39.150 52.533, 37.500 52.934 M 134.075 89.869 C 131.284 94.746, 129 99.286, 129 99.957 C 129 100.864, 131.845 101.090, 140.084 100.838 C 151.168 100.500, 151.168 100.500, 154.084 97.234 C 157.215 93.728, 157.708 90.647, 155.805 86.472 C 154.185 82.916, 150.095 81, 144.125 81 C 139.150 81, 139.150 81, 134.075 89.869" stroke="none" fill="#642c91" fill-rule="evenodd"/></svg>