<?xml version="1.0" standalone="no"?>
<!DOCTYPE svg PUBLIC "-//W3C//DTD SVG 20010904//EN"
 "http://www.w3.org/TR/2001/REC-SVG-20010904/DTD/svg10.dtd">
<svg version="1.0" xmlns="http://www.w3.org/2000/svg"
 width="471.000000pt" height="471.000000pt" viewBox="0 0 471.000000 471.000000"
 preserveAspectRatio="xMidYMid meet">

<g transform="translate(0.000000,471.000000) scale(0.100000,-0.100000)"
fill="#000000" stroke="none">
<path d="M0 2355 l0 -2355 2355 0 2355 0 0 2355 0 2355 -2355 0 -2355 0 0
-2355z m1901 1008 c23 -43 75 -135 116 -205 40 -70 86 -151 102 -181 16 -29
53 -96 83 -148 30 -51 66 -114 80 -139 93 -166 90 -162 103 -143 6 10 47 81
90 158 110 197 246 438 290 515 21 36 53 94 72 130 20 36 40 71 45 78 12 14
428 16 733 3 174 -7 184 -9 297 -48 146 -50 263 -121 372 -228 223 -219 333
-543 282 -834 -60 -345 -307 -618 -683 -754 l-88 -32 -513 -3 -512 -3 32 59
c171 306 235 411 253 416 11 3 154 6 317 6 277 0 302 1 360 21 243 83 377 289
340 525 -35 225 -240 395 -488 404 -32 1 -140 2 -239 1 l-180 -2 -74 -137
c-41 -75 -119 -217 -173 -315 -54 -97 -98 -179 -98 -182 0 -3 -10 -22 -23 -43
-26 -40 -30 -48 -246 -443 -80 -146 -153 -277 -162 -290 -16 -23 -16 -23 -56
47 -35 60 -152 272 -253 459 -40 73 -170 308 -346 625 -32 58 -78 143 -103
189 -25 46 -53 86 -62 90 -10 3 -127 3 -261 0 -200 -4 -252 -9 -296 -24 -84
-29 -181 -95 -231 -155 l-44 -55 297 -5 298 -5 63 -115 c34 -63 92 -168 128
-233 37 -64 67 -119 67 -122 0 -3 -192 -6 -426 -7 l-426 -3 33 -41 c51 -62
135 -120 221 -154 l76 -30 319 0 c175 -1 324 -5 332 -9 7 -5 68 -111 135 -237
l122 -229 -493 -3 -492 -2 -98 31 c-184 59 -333 147 -449 263 -320 324 -362
779 -108 1177 44 69 152 185 219 236 77 58 201 122 300 154 118 38 214 45 702
47 l302 2 42 -77z m1824 -667 c103 -66 146 -173 115 -285 -17 -62 -99 -143
-162 -159 -47 -12 -528 -18 -528 -7 0 9 50 106 75 145 25 40 72 125 123 220
65 124 43 112 205 108 120 -2 147 -6 172 -22z"/>
</g>
</svg>
